<?xml version="1.0" encoding="UTF-8"?>
<svg width="569px" height="166px" viewBox="0 0 569 166" version="1.1" xmlns="http://www.w3.org/2000/svg" xmlns:xlink="http://www.w3.org/1999/xlink">
    <!-- Generator: Sketch 61 (89581) - https://sketch.com -->
    <title>Group</title>
    <desc>Created with Sketch.</desc>
    <g id="Page-1" stroke="none" stroke-width="1" fill="none" fill-rule="evenodd">
        <g id="Artboard" transform="translate(-106.000000, -219.000000)">
            <g id="Group" transform="translate(110.000000, 216.000000)">
                <g id="book-clipart-logo-458285-2805113" transform="translate(0.000000, 7.000000)">
                    <path d="M12.4337717,108 C5.56677783,108 0,114.714282 0,122.99695 C0,131.279617 5.0397911,136.956154 12.4337717,137.993899 L104.911563,158 L188,111.949154" id="path4513-6" stroke="#000000" stroke-width="7.4434543" stroke-linecap="round" stroke-linejoin="round"></path>
                    <path d="M12.4337717,77 C5.56677783,77 0,83.7142824 0,91.9969497 C0,100.279617 5.0397911,105.956154 12.4337717,106.993899 L104.911563,127 L188,80.9491542" id="path4513-6-7" stroke="#000000" stroke-width="7.4434543" stroke-linecap="round" stroke-linejoin="round"></path>
                    <path d="M12.4337717,47 C5.56677783,47 0,53.7142824 0,61.9969497 C0,70.2796171 5.0397911,75.9561536 12.4337717,76.9938995 L57.5438747,86.7527451 M84.5410516,92.5931721 L104.911563,97 L188,50.9491542" id="path4513-6-7-5-3" stroke="#000000" stroke-width="7.4434543" stroke-linecap="round" stroke-linejoin="round"></path>
                    <polygon id="path4513-6-7-5-3-5" stroke="#000000" stroke-width="7.44345431" fill="#2066C4" fill-rule="nonzero" stroke-linecap="round" stroke-linejoin="round" points="95.4214869 0 10 46.7083059 104.821105 67 188 20.2915274"></polygon>
                    <polygon id="path4513-6-7-5-3-5-2" stroke="#333333" stroke-width="2.76826787" fill="#FFFFFF" fill-rule="nonzero" stroke-linecap="round" stroke-linejoin="round" points="101.48969 18 80 29.704672 114.510705 37 136 25.295328"></polygon>
                    <polygon id="path4508" fill="#2066C4" points="64 71 64 101.904253 71.1153637 97.6223442 79 106 79 73.4202077"></polygon>
                </g>
                <text id="OKULYK.KZ" font-family="Futura-Medium, Futura" font-size="30" font-weight="400" fill="#2066C4">
                    <tspan x="214" y="157">OKULYK.KZ</tspan>
                </text>
                <text id="Электронные-учебники" font-family="LucidaGrande-Bold, Lucida Grande" font-size="50" font-weight="bold" fill="#2066C4">
                    <tspan x="214" y="48">Электронные</tspan>
                    <tspan x="567.540039" y="48" font-family="Futura-Medium, Futura" font-weight="400"></tspan>
                    <tspan x="214" y="107">учебники</tspan>
                </text>
            </g>
        </g>
    </g>
</svg>